<?xml version="1.0" encoding="utf-8"?>
<!-- Generator: Adobe Illustrator 27.5.0, SVG Export Plug-In . SVG Version: 6.00 Build 0)  -->
<svg version="1.1" xmlns="http://www.w3.org/2000/svg" xmlns:xlink="http://www.w3.org/1999/xlink" x="0px" y="0px"
	 viewBox="0 0 2200 2200" style="enable-background:new 0 0 2200 2200;" xml:space="preserve">
<g id="background">
	<rect style="fill:#FFFFFF;" width="2200" height="2200"/>
</g>
<g id="Objects">
	<g>
		<path style="fill:#3F9FEF;" d="M776.765,841.972c86.203-29.639,200.997-45.961,323.235-45.961s237.032,16.322,323.235,45.961
			c81.991,28.19,129.015,65.955,129.015,103.612c0,37.657-47.024,75.422-129.015,103.613
			c-86.203,29.638-200.997,45.962-323.235,45.962s-237.032-16.323-323.235-45.962c-81.991-28.191-129.015-65.955-129.015-103.613
			C647.75,907.928,694.774,870.162,776.765,841.972z"/>
		<path style="fill:#1D3082;" d="M1552.25,1804.427c0,37.656-47.024,75.422-129.015,103.612
			C1337.032,1937.678,1222.238,1954,1100,1954s-237.032-16.322-323.235-45.961c-81.991-28.19-129.015-65.955-129.015-103.612
			v-144.383c22.078,27.945,63.958,53.181,123.148,73.532c88.045,30.272,204.921,46.945,329.102,46.945
			s241.057-16.673,329.102-46.945c59.19-20.351,101.071-45.587,123.148-73.532V1804.427z"/>
		<path style="fill:#3F9FEF;" d="M1552.25,1612.902c0,37.655-47.024,75.419-129.016,103.61
			c-86.206,29.64-200.999,45.964-323.234,45.964s-237.028-16.323-323.234-45.964c-81.992-28.192-129.016-65.955-129.016-103.61
			c0-25.052,20.714-46.048,39.982-60.161c21.929,14.193,49.785,27.228,83.165,38.705c88.043,30.271,204.92,46.942,329.103,46.942
			s241.06-16.671,329.103-46.942c33.38-11.477,61.237-24.512,83.165-38.705C1531.536,1566.854,1552.25,1587.85,1552.25,1612.902z"/>
		<path style="fill:#1D3082;" d="M1552.25,1470.77c0,37.656-47.024,75.422-129.015,103.612
			c-86.203,29.639-200.997,45.961-323.235,45.961s-237.032-16.322-323.235-45.961c-81.991-28.19-129.015-65.955-129.015-103.612
			v-144.382c22.078,27.946,63.958,53.182,123.148,73.533c88.042,30.271,204.92,46.942,329.102,46.942s241.06-16.671,329.102-46.942
			c59.19-20.351,101.071-45.586,123.148-73.533V1470.77z"/>
		<path style="fill:#3F9FEF;" d="M1552.25,1279.244c0,37.657-47.024,75.422-129.016,103.613
			c-86.203,29.639-200.997,45.961-323.234,45.961s-237.031-16.322-323.234-45.961c-81.992-28.19-129.016-65.955-129.016-103.613
			c0-25.052,20.713-46.049,39.98-60.162c21.929,14.194,49.786,27.229,83.167,38.706c88.043,30.271,204.92,46.943,329.103,46.943
			s241.06-16.671,329.103-46.943c33.381-11.477,61.238-24.512,83.167-38.706C1531.537,1233.195,1552.25,1254.192,1552.25,1279.244z"
			/>
		<path style="fill:#1D3082;" d="M1423.235,1240.724c-86.203,29.638-200.997,45.962-323.235,45.962s-237.032-16.323-323.235-45.962
			c-81.991-28.191-129.015-65.955-129.015-103.613V992.729c22.078,27.946,63.958,53.182,123.147,73.532
			c88.043,30.271,204.92,46.942,329.103,46.942s241.06-16.671,329.103-46.942c59.189-20.35,101.069-45.586,123.147-73.532v144.383
			C1552.25,1174.769,1505.226,1212.533,1423.235,1240.724z"/>
		<rect x="923.41" y="768.532" style="fill:#1D3082;" width="53.556" height="53.556"/>
		<rect x="1005.915" y="654.183" style="fill:#3F9FEF;" width="82.505" height="82.505"/>
		<rect x="830.773" y="581.81" style="fill:#1D3082;" width="101.322" height="101.322"/>
		<rect x="1026.18" y="473.251" style="fill:#1D3082;" width="123.034" height="123.034"/>
		<rect x="813.403" y="327.058" style="fill:#3F9FEF;" width="153.431" height="153.431"/>
		<rect x="1094.21" y="246" style="fill:#3F9FEF;" width="173.695" height="173.695"/>
		<rect x="1340.278" y="319.82" style="fill:#1D3082;" width="166.458" height="166.458"/>
		<rect x="1210.007" y="525.359" style="fill:#3F9FEF;" width="81.058" height="81.058"/>
	</g>
</g>
</svg>
