<?xml version="1.0" ?><svg enable-background="new 0 0 1080 1080" id="katman_1" version="1.1" viewBox="0 0 1080 1080" xml:space="preserve" xmlns="http://www.w3.org/2000/svg" xmlns:xlink="http://www.w3.org/1999/xlink"><g><path d="M189.9,892.1c-18.4-17.8-34.7-37.3-49.7-57.9c-39.9-54.7-67.5-115-82.8-180.9c-5.1-22.1-8.4-44.6-10.6-67.2   c-2-21.1-2.3-42.2-1.6-63.4c1.5-44.3,9-87.7,22.3-130c19.4-61.7,49.6-117.6,90.9-167.2c62.4-75.1,140.2-127.8,233.3-157.6   c28.2-9,57-15.1,86.3-19c28.8-3.9,57.7-4.9,86.6-3.6c58.7,2.7,115.3,15.3,169.5,38.2c44.6,18.9,85.6,43.7,123,74.4   c12.2,10,24,20.6,35.1,31.9c0.7,0.7,1.7,1.2,1.6,2.4c-0.6,2.4-2.6,3.8-4.2,5.5c-23.3,23.3-46.6,46.6-69.9,70   c-2.2,2.2-4.7,4.3-5.9,7.4c-0.4,0.9-1,1.8-2.3,0.9c-0.3-0.4-0.5-0.9-0.6-1.4c-0.5-19.5-4.9-38.2-11.2-56.6   c-1.6-4.7-4.2-6.8-8.9-7.1c-6.4-0.4-12.7,0.6-18.9,1.6c-22.6,3.9-43.3,13-63.3,23.8c-11.7,6.3-23.2,13.2-34.2,20.8   c-3.4,2.4-6.9,2.9-10.9,1.8c-21.3-5.7-42.9-9.6-64.8-11.8c-24.7-2.5-49.5-3.1-74.3-1.6c-24.5,1.5-48.7,4.8-72.6,10.2   c-3.7,0.8-7.5,1.5-11.1,2.8c-4.9,1.8-8.9,0.7-13.1-2.1c-25.1-16.7-51.2-31.2-80.2-40c-9.9-3-20.1-4.8-30.4-5.6   c-2.3-0.2-4.6,0.2-7,0.4c-3.8,0.4-5.8,2.5-7,6.1c-8.3,23.8-12.7,48.3-11.4,73.6c0.7,12.6,2.3,25.3,6.8,37.2   c1.9,5.1,1.4,8.9-2.3,13.1c-23.9,27.2-37.6,59.1-42.1,94.9c-2.1,16.2-1.8,32.5-0.8,48.8c1.1,18,3.4,35.8,7.5,53.4   c8.4,35.8,24,67.8,50.7,93.6c20.7,20,45.4,33.6,72.5,43c5.5,1.9,11.2,3.3,16.6,5.4c0.4,0.3,0.8,0.7,1,1.1c0,2.3-1.9,3.4-3.2,4.8   c-50.1,50.2-100,100.6-150.5,150.3c-17.8,17.5-35.4,35.2-53.3,52.6C193,890.2,191.9,891.8,189.9,892.1z" fill="#9B9B9B"/><path d="M1035.8,505c2.6,21.4,1.8,42.9,0.9,64.2c-1.1,25.7-5,51.2-10.4,76.5c-6.3,29.4-15,58-26.6,85.6   c-10.4,24.9-22.8,48.8-37.1,71.7c-12,19.2-25.5,37.3-39.4,55.1c-4.2,5.4-8.9,10.6-13.6,15.6c-6.5,7.1-12.9,14.3-19.9,20.8   c-19.6,18.4-40,35.8-61.9,51.5c-25.4,18.1-52.3,33.5-80.5,46.6c-29.3,13.5-59.8,23.9-91.2,31.2c-17.7,4.2-35.7,7.4-53.7,9.7   c-9.3,1.2-18.7,1.7-28,2.5c-12.8,1.1-25.5,0.4-38.3,0.6c-3.5-1.9-4.5-5.7-6.3-8.8c-30.5-52.9-60.9-105.8-91.3-158.7   c-1.9-3.3-3.9-6.6-5.7-10c-0.8-1.6-2.1-3.4,0.9-4.3c2.2-0.3,4.3,0.4,6.4,1c23.8,7,48.1,11.2,72.7,13.2   c51.1,4.2,101.5-0.6,150.8-15.2c4.4-1.3,6.2-3.5,6.1-8.1c-0.2-22,0.4-44-0.2-66c-0.5-16.8-2-33.6-9.4-49.2   c-5.7-12.1-13.1-22.8-23.5-31.3c-1.8-1.5-5.1-2.8-4.1-5.5c0.9-2.4,4.2-2.1,6.7-2.4c35.8-4.2,70.8-11.3,103.5-27.1   c32.6-15.8,58.8-38.8,76.9-70.6c15.7-27.5,23.5-57.5,27.3-88.7c1.5-12.8,2.4-25.6,2.6-38.3c0.6-46.9-12-89.5-43.4-125.5   c-3.5-4.1-4.6-8-2.7-13.2c5.1-14.4,6.7-29.5,7.4-44.7c0.1-1.8-0.1-3.7,0.5-5.4c1.3-2.5,2.8-0.9,4,0c2.3,1.9,4.5,4,6.4,6.3   c7.5,9.2,16.3,17.1,24.6,25.5c23.6,23.7,46.9,47.8,70.3,71.7c15.7,16.1,32,31.6,47.3,48.1c15.8,17.1,33,33,48.9,50   c6.7,7.2,13.5,14.2,20.4,21.2C1034.3,502.1,1035.2,503.5,1035.8,505z" fill="#4B4A4A"/><path d="M433.2,855.9c0.2,4.7,3.6,7.9,5.7,11.6c19.8,34.8,39.9,69.4,59.8,104.1c12.5,21.7,24.9,43.5,37.3,65.3   c-19.5,0.6-38.9-1.4-58.2-3.7c-32.1-3.8-63.4-11-94-21.2c-72.8-24.3-136.6-63.6-191.5-117.3c-0.8-0.8-1.6-1.7-2.3-2.6   c9.3-9.5,18.5-19.1,28-28.4c60.5-59.1,119.9-119.2,179.8-178.8c1.1-1,2.2-2,3.4-2.9c2-1.5,4.2-0.6,6.2-0.1   c18.5,4.5,37.1,7.9,56,9.8c0.8,0.1,1.7,0.2,2.5,0.4c3.8,1.2,4.3,2.7,1.2,5.4c-4.5,4-8.9,7.9-12.8,12.5   c-12.3,14.7-18.1,31.9-20.7,50.6c-1.3,9.3-0.9,18.6-1,27.9c-0.1,17.1,0,34.3,0,51.4C432.4,845.3,432.3,850.6,433.2,855.9z" fill="#767475"/><path d="M1035.8,505c-10-9.1-18.8-19.3-28.3-28.9C979,447.1,950,418.4,921.8,389c-15.8-16.4-32.4-32.1-47.9-48.8   c-15.6-16.8-32.4-32.6-48.2-49.2c-4.5-4.7-8.5-9.8-13.5-13.9c-0.2-0.2-0.3-0.4-0.3-0.7c0.1-0.2,0.1-0.3,0.2-0.3   c0.8-3.5,3.2-6,5.7-8.4c24-23.9,48-47.9,72-71.9c1.3-1.3,2.7-2.5,4-3.7c9.2,7.8,16.8,17,24.5,26.1c46.6,54.9,80.1,116.8,99.8,186.1   c8.6,30.2,14.5,61,16.9,92.3C1035.3,499.4,1036.2,502.2,1035.8,505z" fill="#767475"/><path d="M400.8,681.1c-54-14.5-97.6-42.8-123.9-93.7c-12.5-24.2-19.3-50.2-22.9-77.1c-2.5-18.8-3.6-37.8-2.9-56.8   c1.6-43.7,16.2-82.3,45.2-115.2c1.7-2,2.8-3.5,1.8-6.5c-11.2-32.7-10.3-65.7-1.6-98.8c1.7-6.4,4-12.7,6-19c0.8-2.7,2.4-3.8,5.3-4.2   c12.7-1.8,24.9,0.9,36.9,4.2c30.3,8.5,57.4,23.7,83.5,41c4,2.7,7.4,3.2,12,2c22.7-6.2,45.8-9.9,69.1-12.1   c16.4-1.5,32.9-2.1,49.4-1.9c35.6,0.4,70.6,5.2,105,14.3c4,1.1,6.9,0.3,10.1-1.8c22.3-15,45.6-28.2,71-37.4   c12.7-4.6,25.8-7.7,39.3-8.8c2.2-0.2,4.3,0,6.5,0c5.3,0.1,8.5,2,10.3,7.7c5.5,16.9,9.9,33.9,11,51.6c0.1,2.1-0.1,4.3-0.2,6.5   c-0.6,2.7-2.3,4.7-4.2,6.6c-14.2,14.1-28.1,28.5-42.4,42.3C708.7,378.3,654.5,435,598.3,489.7c-57.2,55.8-113.1,113-170,169   c-7,6.9-14.3,13.5-21.2,20.4C405.3,680.9,403.4,682.2,400.8,681.1z" fill="#FEFEFE"/><path d="M400.8,681.1c2.7,0.2,4.2-1.7,5.8-3.3c60.8-58.8,119.5-119.7,180-178.8c57.2-55.9,112.9-113.2,170.1-169   c16.9-16.5,33.5-33.3,50.5-49.8c1.7-1.6,3.1-3.5,4.6-5.2c0.1,0.4,0.2,0.7,0.2,1.1c0,0.3,0,0.7,0,1c-0.3,19.1-2.2,37.9-9,55.9   c-1,2.7,1,4,2.3,5.5c17.7,20.2,30.5,43.1,37.9,69c6,21.3,7.9,43.1,7.2,65.2c-0.8,23.5-3.2,46.8-9,69.6   c-17.5,69.3-61.1,113.9-128.8,135.6c-24.2,7.8-48.9,12.4-74.1,15.2c-2,0.2-3.9,0.6-6.8,1c6.5,5,12.2,9.9,17,15.8   c13.2,16.2,19.8,35,21.1,55.5c1.9,28.1,0.4,56.3,0.8,84.5c0,2.6-0.8,3.8-3.4,4.6c-22,6.7-44.4,11.5-67.2,14.6   c-20.4,2.7-40.8,3.4-61.3,3.1c-35-0.5-69.2-6-102.8-15.5c-1-0.3-1.9-0.4-2.9-0.6c-1.8-1-2.2-2.5-2.2-4.5   c0.1-27.3-0.6-54.6,0.3-81.9c0.9-25.8,9.2-49.2,28.5-67.6c1.4-1.4,3-2.6,4.6-3.9c1.4-1.2,2.7-2.3,4.9-4.1   c-23.6-2.4-46-6.6-68.2-11.9C401,681.7,400.9,681.4,400.8,681.1z" fill="#DCDCDC"/></g></svg>