<svg xmlns="http://www.w3.org/2000/svg" xmlns:xlink="http://www.w3.org/1999/xlink" version="1.1" width="256" height="256" viewBox="0 0 256 256" xml:space="preserve">
<g style="stroke: none; stroke-width: 0; stroke-dasharray: none; stroke-linecap: butt; stroke-linejoin: miter; stroke-miterlimit: 10; fill: none; fill-rule: nonzero; opacity: 1;" transform="translate(1.4065934065934016 1.4065934065934016) scale(2.81 2.81)">
	<linearGradient id="SVGID_6" gradientUnits="userSpaceOnUse" x1="24.2649" y1="80.6483" x2="24.2649" y2="4.3033">
<stop offset="0%" style="stop-color:rgb(0,94,208);stop-opacity: 1"/>
<stop offset="100%" style="stop-color:rgb(48,186,255);stop-opacity: 1"/>
</linearGradient>
<path d="M 29.667 47.443 c 1.104 0 2 -0.896 2 -2 V 30.262 c 0 -3.403 -2.769 -6.172 -6.173 -6.172 h -2.458 c -3.404 0 -6.173 2.769 -6.173 6.172 v 15.181 c 0 1.105 0.896 2 2 2 s 2 -0.896 2 -2 v -7.677 h 6.803 v 7.677 C 27.667 46.548 28.562 47.443 29.667 47.443 z M 20.863 33.766 v -3.504 c 0 -1.198 0.975 -2.172 2.173 -2.172 h 2.458 c 1.198 0 2.173 0.975 2.173 2.172 v 3.504 H 20.863 z" style="stroke: none; stroke-width: 1; stroke-dasharray: none; stroke-linecap: butt; stroke-linejoin: miter; stroke-miterlimit: 10; fill: url(#SVGID_6); fill-rule: nonzero; opacity: 1;" transform=" matrix(1 0 0 1 0 0) " stroke-linecap="round"/>
	<linearGradient id="SVGID_7" gradientUnits="userSpaceOnUse" x1="43.0034" y1="80.6483" x2="43.0034" y2="4.3033">
<stop offset="0%" style="stop-color:rgb(0,94,208);stop-opacity: 1"/>
<stop offset="100%" style="stop-color:rgb(48,186,255);stop-opacity: 1"/>
</linearGradient>
<path d="M 37.822 24.089 c -1.104 0 -2 0.896 -2 2 v 9.677 v 9.677 c 0 1.105 0.896 2 2 2 s 2 -0.896 2 -2 v -7.677 h 4.662 c 3.144 0 5.7 -2.557 5.7 -5.7 V 29.79 c 0 -3.143 -2.557 -5.7 -5.7 -5.7 H 37.822 z M 46.185 29.79 v 2.276 c 0 0.938 -0.763 1.7 -1.7 1.7 h -4.662 v -5.677 h 4.662 C 45.422 28.089 46.185 28.852 46.185 29.79 z" style="stroke: none; stroke-width: 1; stroke-dasharray: none; stroke-linecap: butt; stroke-linejoin: miter; stroke-miterlimit: 10; fill: url(#SVGID_7); fill-rule: nonzero; opacity: 1;" transform=" matrix(1 0 0 1 0 0) " stroke-linecap="round"/>
	<linearGradient id="SVGID_8" gradientUnits="userSpaceOnUse" x1="55.6943" y1="80.6483" x2="55.6943" y2="4.3033">
<stop offset="0%" style="stop-color:rgb(0,94,208);stop-opacity: 1"/>
<stop offset="100%" style="stop-color:rgb(48,186,255);stop-opacity: 1"/>
</linearGradient>
<path d="M 53.694 26.089 v 19.354 c 0 1.105 0.896 2 2 2 s 2 -0.896 2 -2 V 26.089 c 0 -1.104 -0.896 -2 -2 -2 S 53.694 24.985 53.694 26.089 z" style="stroke: none; stroke-width: 1; stroke-dasharray: none; stroke-linecap: butt; stroke-linejoin: miter; stroke-miterlimit: 10; fill: url(#SVGID_8); fill-rule: nonzero; opacity: 1;" transform=" matrix(1 0 0 1 0 0) " stroke-linecap="round"/>
	<linearGradient id="SVGID_9" gradientUnits="userSpaceOnUse" x1="45.3111" y1="80.6483" x2="45.3111" y2="4.3033">
<stop offset="0%" style="stop-color:rgb(0,94,208);stop-opacity: 1"/>
<stop offset="100%" style="stop-color:rgb(48,186,255);stop-opacity: 1"/>
</linearGradient>
<path d="M 53.478 69.922 c -8.096 4.677 -18.486 1.89 -23.16 -6.206 c -0.762 -1.318 -1.34 -2.736 -1.721 -4.214 c -0.275 -1.069 -1.368 -1.712 -2.436 -1.438 c -1.07 0.275 -1.714 1.365 -1.438 2.436 c 0.471 1.828 1.188 3.584 2.131 5.216 c 3.876 6.716 10.934 10.474 18.182 10.474 c 3.552 -0.001 7.151 -0.903 10.442 -2.803 c 9.2 -5.313 12.975 -16.666 8.78 -26.411 c -0.437 -1.015 -1.615 -1.484 -2.628 -1.046 c -1.015 0.437 -1.482 1.613 -1.046 2.628 C 63.977 56.439 60.921 65.624 53.478 69.922 z" style="stroke: none; stroke-width: 1; stroke-dasharray: none; stroke-linecap: butt; stroke-linejoin: miter; stroke-miterlimit: 10; fill: url(#SVGID_9); fill-rule: nonzero; opacity: 1;" transform=" matrix(1 0 0 1 0 0) " stroke-linecap="round"/>
	<linearGradient id="SVGID_10" gradientUnits="userSpaceOnUse" x1="45.0381" y1="80.6483" x2="45.0381" y2="4.3033">
<stop offset="0%" style="stop-color:rgb(0,94,208);stop-opacity: 1"/>
<stop offset="100%" style="stop-color:rgb(48,186,255);stop-opacity: 1"/>
</linearGradient>
<path d="M 73.13 44.001 c -1.213 0 -2.329 -0.702 -2.915 -1.834 c -0.197 -0.379 -0.402 -0.757 -0.616 -1.126 c -0.217 -0.376 -0.441 -0.745 -0.674 -1.106 c -0.597 -0.929 -1.833 -1.199 -2.764 -0.6 c -0.929 0.598 -1.197 1.835 -0.6 2.764 c 0.197 0.307 0.387 0.619 0.573 0.943 c 0.186 0.32 0.361 0.643 0.528 0.965 c 1.273 2.464 3.752 3.995 6.467 3.995 c 1.784 0 3.235 1.451 3.235 3.234 v 8.008 c 0 1.783 -1.451 3.234 -3.238 3.234 c -2.719 0 -5.182 1.506 -6.427 3.93 c -0.36 0.7 -0.759 1.39 -1.184 2.05 c -1.473 2.287 -1.542 5.17 -0.183 7.523 c 0.432 0.749 0.547 1.62 0.323 2.455 s -0.76 1.532 -1.508 1.964 l -6.935 4.004 c -1.539 0.893 -3.515 0.364 -4.411 -1.17 c -0.003 -0.005 -0.006 -0.01 -0.009 -0.016 c -1.358 -2.354 -3.888 -3.716 -6.606 -3.603 c -0.778 0.039 -1.575 0.039 -2.367 0 c -2.724 -0.138 -5.257 1.247 -6.616 3.602 c -0.004 0.007 -0.007 0.013 -0.011 0.02 c -0.896 1.531 -2.87 2.057 -4.41 1.167 l -6.934 -4.004 c -0.749 -0.432 -1.284 -1.129 -1.507 -1.964 c -0.224 -0.835 -0.109 -1.707 0.323 -2.455 c 1.358 -2.351 1.271 -5.262 -0.226 -7.596 c -0.197 -0.309 -0.389 -0.623 -0.574 -0.944 c -0.185 -0.319 -0.361 -0.643 -0.529 -0.969 c -1.275 -2.464 -3.752 -3.994 -6.467 -3.994 c -1.607 0 -2.945 -1.163 -3.18 -2.767 c -0.16 -1.092 -1.174 -1.85 -2.269 -1.688 c -1.093 0.16 -1.849 1.176 -1.689 2.269 c 0.517 3.527 3.585 6.187 7.138 6.187 c 1.212 0 2.329 0.702 2.913 1.831 c 0.196 0.38 0.403 0.758 0.619 1.132 s 0.439 0.741 0.67 1.102 c 0.686 1.071 0.736 2.389 0.129 3.438 c -0.966 1.674 -1.223 3.623 -0.723 5.49 c 0.5 1.867 1.698 3.427 3.371 4.394 l 6.934 4.004 c 1.137 0.655 2.379 0.968 3.605 0.968 c 2.502 0 4.939 -1.298 6.278 -3.616 c 0.004 -0.006 0.007 -0.013 0.011 -0.02 c 0.609 -1.039 1.726 -1.658 2.949 -1.589 c 0.922 0.043 1.85 0.043 2.755 0 c 1.23 -0.062 2.332 0.551 2.939 1.592 c 0.003 0.006 0.006 0.012 0.01 0.017 c 1.994 3.453 6.427 4.641 9.883 2.648 l 6.935 -4.004 c 1.674 -0.967 2.871 -2.526 3.371 -4.394 s 0.243 -3.817 -0.724 -5.491 c -0.606 -1.05 -0.574 -2.336 0.083 -3.357 c 0.495 -0.769 0.958 -1.571 1.377 -2.387 c 0.558 -1.084 1.657 -1.758 2.873 -1.758 c 3.989 0 7.235 -3.245 7.235 -7.234 v -8.008 C 80.365 47.246 77.119 44.001 73.13 44.001 z" style="stroke: none; stroke-width: 1; stroke-dasharray: none; stroke-linecap: butt; stroke-linejoin: miter; stroke-miterlimit: 10; fill: url(#SVGID_10); fill-rule: nonzero; opacity: 1;" transform=" matrix(1 0 0 1 0 0) " stroke-linecap="round"/>
	<linearGradient id="SVGID_11" gradientUnits="userSpaceOnUse" x1="45" y1="80.6483" x2="45" y2="4.3033">
<stop offset="0%" style="stop-color:rgb(0,94,208);stop-opacity: 1"/>
<stop offset="100%" style="stop-color:rgb(48,186,255);stop-opacity: 1"/>
</linearGradient>
<path d="M 81.061 26.991 C 80.798 16.723 72.363 8.452 62.033 8.452 c -3.216 0 -6.336 0.802 -9.126 2.333 c -4.982 -6.057 -12.454 -9.623 -20.339 -9.623 c -14.515 0 -26.324 11.809 -26.324 26.324 c 0 0.347 0.008 0.7 0.024 1.065 C 2.322 31.413 0 35.922 0 40.841 c 0 8.388 6.824 15.212 15.212 15.212 h 41.683 c 1.104 0 2 -0.896 2 -2 s -0.896 -2 -2 -2 H 15.212 C 9.03 52.053 4 47.023 4 40.841 c 0 -3.927 2.012 -7.501 5.382 -9.562 c 0.646 -0.395 1.014 -1.122 0.95 -1.876 c -0.059 -0.696 -0.088 -1.323 -0.088 -1.917 c 0 -12.31 10.014 -22.324 22.324 -22.324 c 7.218 0 14.028 3.524 18.216 9.428 c 0.632 0.89 1.861 1.109 2.762 0.492 c 2.509 -1.721 5.443 -2.63 8.487 -2.63 c 8.29 0 15.034 6.744 15.034 15.034 c 0 0.141 -0.011 0.28 -0.021 0.419 l -0.021 0.333 c -0.043 0.892 0.511 1.705 1.356 1.991 C 82.938 31.773 86 36.037 86 40.841 c 0 2.737 -0.997 5.373 -2.808 7.422 c -0.731 0.828 -0.653 2.092 0.175 2.823 s 2.092 0.653 2.823 -0.175 C 88.647 48.13 90 44.554 90 40.841 C 90 34.825 86.464 29.433 81.061 26.991 z" style="stroke: none; stroke-width: 1; stroke-dasharray: none; stroke-linecap: butt; stroke-linejoin: miter; stroke-miterlimit: 10; fill: url(#SVGID_11); fill-rule: nonzero; opacity: 1;" transform=" matrix(1 0 0 1 0 0) " stroke-linecap="round"/>
</g>
</svg>